<mxfile host="app.diagrams.net" modified="2021-01-18T13:16:57.677Z" agent="5.0 (Windows NT 10.0; Win64; x64) AppleWebKit/537.36 (KHTML, like Gecko) Chrome/87.0.4280.141 Safari/537.36" etag="cBk7-Rb4aqSlTHW-e-E1" version="14.2.4" type="github">
  <diagram id="LtLgtl0H59_zhM7yrg9D" name="Page-1">
    <mxGraphModel dx="2562" dy="749" grid="1" gridSize="10" guides="1" tooltips="1" connect="1" arrows="1" fold="1" page="1" pageScale="1" pageWidth="850" pageHeight="1100" math="0" shadow="0">
      <root>
        <mxCell id="0" />
        <mxCell id="1" parent="0" />
        <mxCell id="K3Fq1qGG9vaQc0jTNdZ0-2" value="User" style="swimlane;fontStyle=3;childLayout=stackLayout;horizontal=1;startSize=26;horizontalStack=0;resizeParent=1;resizeParentMax=0;resizeLast=0;collapsible=1;marginBottom=0;align=center;fontSize=18;fontFamily=Times New Roman;" parent="1" vertex="1">
          <mxGeometry x="250" y="280" width="160" height="266" as="geometry" />
        </mxCell>
        <mxCell id="K3Fq1qGG9vaQc0jTNdZ0-3" value="userID" style="text;strokeColor=none;fillColor=none;spacingLeft=4;spacingRight=4;overflow=hidden;rotatable=0;points=[[0,0.5],[1,0.5]];portConstraint=eastwest;fontSize=18;fontFamily=Times New Roman;fontStyle=3" parent="K3Fq1qGG9vaQc0jTNdZ0-2" vertex="1">
          <mxGeometry y="26" width="160" height="30" as="geometry" />
        </mxCell>
        <mxCell id="K3Fq1qGG9vaQc0jTNdZ0-29" value="userName" style="text;strokeColor=none;fillColor=none;spacingLeft=4;spacingRight=4;overflow=hidden;rotatable=0;points=[[0,0.5],[1,0.5]];portConstraint=eastwest;fontSize=18;fontFamily=Times New Roman;fontStyle=3" parent="K3Fq1qGG9vaQc0jTNdZ0-2" vertex="1">
          <mxGeometry y="56" width="160" height="30" as="geometry" />
        </mxCell>
        <mxCell id="K3Fq1qGG9vaQc0jTNdZ0-26" value="email" style="text;strokeColor=none;fillColor=none;spacingLeft=4;spacingRight=4;overflow=hidden;rotatable=0;points=[[0,0.5],[1,0.5]];portConstraint=eastwest;fontSize=18;fontFamily=Times New Roman;fontStyle=3" parent="K3Fq1qGG9vaQc0jTNdZ0-2" vertex="1">
          <mxGeometry y="86" width="160" height="30" as="geometry" />
        </mxCell>
        <mxCell id="K3Fq1qGG9vaQc0jTNdZ0-27" value="password" style="text;strokeColor=none;fillColor=none;spacingLeft=4;spacingRight=4;overflow=hidden;rotatable=0;points=[[0,0.5],[1,0.5]];portConstraint=eastwest;fontSize=18;fontFamily=Times New Roman;fontStyle=3" parent="K3Fq1qGG9vaQc0jTNdZ0-2" vertex="1">
          <mxGeometry y="116" width="160" height="30" as="geometry" />
        </mxCell>
        <mxCell id="K3Fq1qGG9vaQc0jTNdZ0-5" value="mobileNumber" style="text;strokeColor=none;fillColor=none;spacingLeft=4;spacingRight=4;overflow=hidden;rotatable=0;points=[[0,0.5],[1,0.5]];portConstraint=eastwest;fontSize=18;fontFamily=Times New Roman;fontStyle=3" parent="K3Fq1qGG9vaQc0jTNdZ0-2" vertex="1">
          <mxGeometry y="146" width="160" height="30" as="geometry" />
        </mxCell>
        <mxCell id="K3Fq1qGG9vaQc0jTNdZ0-13" value="address" style="text;strokeColor=none;fillColor=none;spacingLeft=4;spacingRight=4;overflow=hidden;rotatable=0;points=[[0,0.5],[1,0.5]];portConstraint=eastwest;fontSize=18;fontFamily=Times New Roman;fontStyle=3" parent="K3Fq1qGG9vaQc0jTNdZ0-2" vertex="1">
          <mxGeometry y="176" width="160" height="30" as="geometry" />
        </mxCell>
        <mxCell id="mUsgafQ3jivhUId0vzJP-2" value="createdAt" style="text;strokeColor=none;fillColor=none;spacingLeft=4;spacingRight=4;overflow=hidden;rotatable=0;points=[[0,0.5],[1,0.5]];portConstraint=eastwest;fontSize=18;fontFamily=Times New Roman;fontStyle=3" vertex="1" parent="K3Fq1qGG9vaQc0jTNdZ0-2">
          <mxGeometry y="206" width="160" height="30" as="geometry" />
        </mxCell>
        <mxCell id="mUsgafQ3jivhUId0vzJP-3" value="updatedAt" style="text;strokeColor=none;fillColor=none;spacingLeft=4;spacingRight=4;overflow=hidden;rotatable=0;points=[[0,0.5],[1,0.5]];portConstraint=eastwest;fontSize=18;fontFamily=Times New Roman;fontStyle=3" vertex="1" parent="K3Fq1qGG9vaQc0jTNdZ0-2">
          <mxGeometry y="236" width="160" height="30" as="geometry" />
        </mxCell>
        <mxCell id="K3Fq1qGG9vaQc0jTNdZ0-7" value="Restaurant" style="swimlane;fontStyle=3;childLayout=stackLayout;horizontal=1;startSize=26;horizontalStack=0;resizeParent=1;resizeParentMax=0;resizeLast=0;collapsible=1;marginBottom=0;align=center;fontSize=18;fontFamily=Times New Roman;" parent="1" vertex="1">
          <mxGeometry x="700" y="10" width="160" height="386" as="geometry" />
        </mxCell>
        <mxCell id="K3Fq1qGG9vaQc0jTNdZ0-8" value="restaurantID" style="text;strokeColor=none;fillColor=none;spacingLeft=4;spacingRight=4;overflow=hidden;rotatable=0;points=[[0,0.5],[1,0.5]];portConstraint=eastwest;fontSize=18;fontFamily=Times New Roman;fontStyle=3" parent="K3Fq1qGG9vaQc0jTNdZ0-7" vertex="1">
          <mxGeometry y="26" width="160" height="30" as="geometry" />
        </mxCell>
        <mxCell id="K3Fq1qGG9vaQc0jTNdZ0-11" value="address" style="text;strokeColor=none;fillColor=none;spacingLeft=4;spacingRight=4;overflow=hidden;rotatable=0;points=[[0,0.5],[1,0.5]];portConstraint=eastwest;fontSize=18;fontFamily=Times New Roman;fontStyle=3" parent="K3Fq1qGG9vaQc0jTNdZ0-7" vertex="1">
          <mxGeometry y="56" width="160" height="30" as="geometry" />
        </mxCell>
        <mxCell id="K3Fq1qGG9vaQc0jTNdZ0-12" value="contact" style="text;strokeColor=none;fillColor=none;spacingLeft=4;spacingRight=4;overflow=hidden;rotatable=0;points=[[0,0.5],[1,0.5]];portConstraint=eastwest;fontSize=18;fontFamily=Times New Roman;fontStyle=3" parent="K3Fq1qGG9vaQc0jTNdZ0-7" vertex="1">
          <mxGeometry y="86" width="160" height="30" as="geometry" />
        </mxCell>
        <mxCell id="xaXNP4Upr7w5U2Vh18G4-7" value="phone" style="text;strokeColor=none;fillColor=none;spacingLeft=4;spacingRight=4;overflow=hidden;rotatable=0;points=[[0,0.5],[1,0.5]];portConstraint=eastwest;fontSize=18;fontFamily=Times New Roman;fontStyle=3" parent="K3Fq1qGG9vaQc0jTNdZ0-7" vertex="1">
          <mxGeometry y="116" width="160" height="30" as="geometry" />
        </mxCell>
        <mxCell id="xaXNP4Upr7w5U2Vh18G4-12" value="email" style="text;strokeColor=none;fillColor=none;spacingLeft=4;spacingRight=4;overflow=hidden;rotatable=0;points=[[0,0.5],[1,0.5]];portConstraint=eastwest;fontSize=18;fontFamily=Times New Roman;fontStyle=3" parent="K3Fq1qGG9vaQc0jTNdZ0-7" vertex="1">
          <mxGeometry y="146" width="160" height="30" as="geometry" />
        </mxCell>
        <mxCell id="xaXNP4Upr7w5U2Vh18G4-13" value="password" style="text;strokeColor=none;fillColor=none;spacingLeft=4;spacingRight=4;overflow=hidden;rotatable=0;points=[[0,0.5],[1,0.5]];portConstraint=eastwest;fontSize=18;fontFamily=Times New Roman;fontStyle=3" parent="K3Fq1qGG9vaQc0jTNdZ0-7" vertex="1">
          <mxGeometry y="176" width="160" height="30" as="geometry" />
        </mxCell>
        <mxCell id="xaXNP4Upr7w5U2Vh18G4-9" value="image" style="text;strokeColor=none;fillColor=none;spacingLeft=4;spacingRight=4;overflow=hidden;rotatable=0;points=[[0,0.5],[1,0.5]];portConstraint=eastwest;fontSize=18;fontFamily=Times New Roman;fontStyle=3" parent="K3Fq1qGG9vaQc0jTNdZ0-7" vertex="1">
          <mxGeometry y="206" width="160" height="30" as="geometry" />
        </mxCell>
        <mxCell id="xaXNP4Upr7w5U2Vh18G4-4" value="openTime" style="text;strokeColor=none;fillColor=none;spacingLeft=4;spacingRight=4;overflow=hidden;rotatable=0;points=[[0,0.5],[1,0.5]];portConstraint=eastwest;fontSize=18;fontFamily=Times New Roman;fontStyle=3" parent="K3Fq1qGG9vaQc0jTNdZ0-7" vertex="1">
          <mxGeometry y="236" width="160" height="30" as="geometry" />
        </mxCell>
        <mxCell id="xaXNP4Upr7w5U2Vh18G4-20" value="closeTime" style="text;strokeColor=none;fillColor=none;spacingLeft=4;spacingRight=4;overflow=hidden;rotatable=0;points=[[0,0.5],[1,0.5]];portConstraint=eastwest;fontSize=18;fontFamily=Times New Roman;fontStyle=3" parent="K3Fq1qGG9vaQc0jTNdZ0-7" vertex="1">
          <mxGeometry y="266" width="160" height="30" as="geometry" />
        </mxCell>
        <mxCell id="K3Fq1qGG9vaQc0jTNdZ0-16" value="availableSeats" style="text;strokeColor=none;fillColor=none;spacingLeft=4;spacingRight=4;overflow=hidden;rotatable=0;points=[[0,0.5],[1,0.5]];portConstraint=eastwest;fontSize=18;fontFamily=Times New Roman;fontStyle=3" parent="K3Fq1qGG9vaQc0jTNdZ0-7" vertex="1">
          <mxGeometry y="296" width="160" height="30" as="geometry" />
        </mxCell>
        <mxCell id="K3Fq1qGG9vaQc0jTNdZ0-17" value="totalCapacity" style="text;strokeColor=none;fillColor=none;spacingLeft=4;spacingRight=4;overflow=hidden;rotatable=0;points=[[0,0.5],[1,0.5]];portConstraint=eastwest;fontSize=18;fontFamily=Times New Roman;fontStyle=3" parent="K3Fq1qGG9vaQc0jTNdZ0-7" vertex="1">
          <mxGeometry y="326" width="160" height="30" as="geometry" />
        </mxCell>
        <mxCell id="xaXNP4Upr7w5U2Vh18G4-11" value="ratingStar" style="text;strokeColor=none;fillColor=none;spacingLeft=4;spacingRight=4;overflow=hidden;rotatable=0;points=[[0,0.5],[1,0.5]];portConstraint=eastwest;fontSize=18;fontFamily=Times New Roman;fontStyle=3" parent="K3Fq1qGG9vaQc0jTNdZ0-7" vertex="1">
          <mxGeometry y="356" width="160" height="30" as="geometry" />
        </mxCell>
        <mxCell id="K3Fq1qGG9vaQc0jTNdZ0-14" value="Restaurant Profile" style="swimlane;fontStyle=3;childLayout=stackLayout;horizontal=1;startSize=26;horizontalStack=0;resizeParent=1;resizeParentMax=0;resizeLast=0;collapsible=1;marginBottom=0;align=center;fontSize=18;fontFamily=Times New Roman;" parent="1" vertex="1">
          <mxGeometry x="1395" y="125" width="160" height="116" as="geometry" />
        </mxCell>
        <mxCell id="K3Fq1qGG9vaQc0jTNdZ0-18" value="resturantProfileID" style="text;strokeColor=none;fillColor=none;spacingLeft=4;spacingRight=4;overflow=hidden;rotatable=0;points=[[0,0.5],[1,0.5]];portConstraint=eastwest;fontSize=18;fontFamily=Times New Roman;fontStyle=3" parent="K3Fq1qGG9vaQc0jTNdZ0-14" vertex="1">
          <mxGeometry y="26" width="160" height="30" as="geometry" />
        </mxCell>
        <mxCell id="xaXNP4Upr7w5U2Vh18G4-10" value="comments" style="text;strokeColor=none;fillColor=none;spacingLeft=4;spacingRight=4;overflow=hidden;rotatable=0;points=[[0,0.5],[1,0.5]];portConstraint=eastwest;fontSize=18;fontFamily=Times New Roman;fontStyle=3" parent="K3Fq1qGG9vaQc0jTNdZ0-14" vertex="1">
          <mxGeometry y="56" width="160" height="30" as="geometry" />
        </mxCell>
        <mxCell id="K3Fq1qGG9vaQc0jTNdZ0-15" value="availableItems" style="text;strokeColor=none;fillColor=none;spacingLeft=4;spacingRight=4;overflow=hidden;rotatable=0;points=[[0,0.5],[1,0.5]];portConstraint=eastwest;fontSize=18;fontFamily=Times New Roman;fontStyle=3" parent="K3Fq1qGG9vaQc0jTNdZ0-14" vertex="1">
          <mxGeometry y="86" width="160" height="30" as="geometry" />
        </mxCell>
        <mxCell id="K3Fq1qGG9vaQc0jTNdZ0-24" value="User Signup" style="swimlane;fontStyle=3;childLayout=stackLayout;horizontal=1;startSize=26;horizontalStack=0;resizeParent=1;resizeParentMax=0;resizeLast=0;collapsible=1;marginBottom=0;align=center;fontSize=18;fontFamily=Times New Roman;" parent="1" vertex="1">
          <mxGeometry x="-350" y="50" width="160" height="56" as="geometry" />
        </mxCell>
        <mxCell id="K3Fq1qGG9vaQc0jTNdZ0-20" value="Review Restaurant" style="swimlane;fontStyle=3;childLayout=stackLayout;horizontal=1;startSize=26;horizontalStack=0;resizeParent=1;resizeParentMax=0;resizeLast=0;collapsible=1;marginBottom=0;align=center;fontSize=18;fontFamily=Times New Roman;" parent="1" vertex="1">
          <mxGeometry x="265" y="40" width="160" height="206" as="geometry" />
        </mxCell>
        <mxCell id="K3Fq1qGG9vaQc0jTNdZ0-21" value="reviewRestaurantID" style="text;strokeColor=none;fillColor=none;spacingLeft=4;spacingRight=4;overflow=hidden;rotatable=0;points=[[0,0.5],[1,0.5]];portConstraint=eastwest;fontSize=18;fontFamily=Times New Roman;fontStyle=3" parent="K3Fq1qGG9vaQc0jTNdZ0-20" vertex="1">
          <mxGeometry y="26" width="160" height="30" as="geometry" />
        </mxCell>
        <mxCell id="K3Fq1qGG9vaQc0jTNdZ0-22" value="restaurantID" style="text;strokeColor=none;fillColor=none;spacingLeft=4;spacingRight=4;overflow=hidden;rotatable=0;points=[[0,0.5],[1,0.5]];portConstraint=eastwest;fontSize=18;fontFamily=Times New Roman;fontStyle=3" parent="K3Fq1qGG9vaQc0jTNdZ0-20" vertex="1">
          <mxGeometry y="56" width="160" height="30" as="geometry" />
        </mxCell>
        <mxCell id="K3Fq1qGG9vaQc0jTNdZ0-23" value="comments" style="text;strokeColor=none;fillColor=none;spacingLeft=4;spacingRight=4;overflow=hidden;rotatable=0;points=[[0,0.5],[1,0.5]];portConstraint=eastwest;fontSize=18;fontFamily=Times New Roman;fontStyle=3" parent="K3Fq1qGG9vaQc0jTNdZ0-20" vertex="1">
          <mxGeometry y="86" width="160" height="30" as="geometry" />
        </mxCell>
        <mxCell id="K3Fq1qGG9vaQc0jTNdZ0-35" value="starRating" style="text;strokeColor=none;fillColor=none;spacingLeft=4;spacingRight=4;overflow=hidden;rotatable=0;points=[[0,0.5],[1,0.5]];portConstraint=eastwest;fontSize=18;fontFamily=Times New Roman;fontStyle=3" parent="K3Fq1qGG9vaQc0jTNdZ0-20" vertex="1">
          <mxGeometry y="116" width="160" height="30" as="geometry" />
        </mxCell>
        <mxCell id="K3Fq1qGG9vaQc0jTNdZ0-36" value="image" style="text;strokeColor=none;fillColor=none;spacingLeft=4;spacingRight=4;overflow=hidden;rotatable=0;points=[[0,0.5],[1,0.5]];portConstraint=eastwest;fontSize=18;fontFamily=Times New Roman;fontStyle=3" parent="K3Fq1qGG9vaQc0jTNdZ0-20" vertex="1">
          <mxGeometry y="146" width="160" height="30" as="geometry" />
        </mxCell>
        <mxCell id="mUsgafQ3jivhUId0vzJP-1" value="userID" style="text;strokeColor=none;fillColor=none;spacingLeft=4;spacingRight=4;overflow=hidden;rotatable=0;points=[[0,0.5],[1,0.5]];portConstraint=eastwest;fontSize=18;fontFamily=Times New Roman;fontStyle=3" vertex="1" parent="K3Fq1qGG9vaQc0jTNdZ0-20">
          <mxGeometry y="176" width="160" height="30" as="geometry" />
        </mxCell>
        <mxCell id="K3Fq1qGG9vaQc0jTNdZ0-37" value="Review item" style="swimlane;fontStyle=3;childLayout=stackLayout;horizontal=1;startSize=26;horizontalStack=0;resizeParent=1;resizeParentMax=0;resizeLast=0;collapsible=1;marginBottom=0;align=center;fontSize=18;fontFamily=Times New Roman;" parent="1" vertex="1">
          <mxGeometry x="-360" y="200" width="160" height="176" as="geometry" />
        </mxCell>
        <mxCell id="K3Fq1qGG9vaQc0jTNdZ0-38" value="reviewID" style="text;strokeColor=none;fillColor=none;spacingLeft=4;spacingRight=4;overflow=hidden;rotatable=0;points=[[0,0.5],[1,0.5]];portConstraint=eastwest;fontSize=18;fontFamily=Times New Roman;fontStyle=3" parent="K3Fq1qGG9vaQc0jTNdZ0-37" vertex="1">
          <mxGeometry y="26" width="160" height="30" as="geometry" />
        </mxCell>
        <mxCell id="K3Fq1qGG9vaQc0jTNdZ0-39" value="ItemID" style="text;strokeColor=none;fillColor=none;spacingLeft=4;spacingRight=4;overflow=hidden;rotatable=0;points=[[0,0.5],[1,0.5]];portConstraint=eastwest;fontSize=18;fontFamily=Times New Roman;fontStyle=3" parent="K3Fq1qGG9vaQc0jTNdZ0-37" vertex="1">
          <mxGeometry y="56" width="160" height="30" as="geometry" />
        </mxCell>
        <mxCell id="K3Fq1qGG9vaQc0jTNdZ0-40" value="comments" style="text;strokeColor=none;fillColor=none;spacingLeft=4;spacingRight=4;overflow=hidden;rotatable=0;points=[[0,0.5],[1,0.5]];portConstraint=eastwest;fontSize=18;fontFamily=Times New Roman;fontStyle=3" parent="K3Fq1qGG9vaQc0jTNdZ0-37" vertex="1">
          <mxGeometry y="86" width="160" height="30" as="geometry" />
        </mxCell>
        <mxCell id="K3Fq1qGG9vaQc0jTNdZ0-41" value="rateingStar" style="text;strokeColor=none;fillColor=none;spacingLeft=4;spacingRight=4;overflow=hidden;rotatable=0;points=[[0,0.5],[1,0.5]];portConstraint=eastwest;fontSize=18;fontFamily=Times New Roman;fontStyle=3" parent="K3Fq1qGG9vaQc0jTNdZ0-37" vertex="1">
          <mxGeometry y="116" width="160" height="30" as="geometry" />
        </mxCell>
        <mxCell id="K3Fq1qGG9vaQc0jTNdZ0-42" value="image" style="text;strokeColor=none;fillColor=none;spacingLeft=4;spacingRight=4;overflow=hidden;rotatable=0;points=[[0,0.5],[1,0.5]];portConstraint=eastwest;fontSize=18;fontFamily=Times New Roman;fontStyle=3" parent="K3Fq1qGG9vaQc0jTNdZ0-37" vertex="1">
          <mxGeometry y="146" width="160" height="30" as="geometry" />
        </mxCell>
        <mxCell id="K3Fq1qGG9vaQc0jTNdZ0-44" value="" style="edgeStyle=entityRelationEdgeStyle;fontSize=18;html=1;endArrow=ERmany;fontFamily=Times New Roman;fontStyle=3" parent="1" target="K3Fq1qGG9vaQc0jTNdZ0-21" edge="1">
          <mxGeometry width="100" height="100" relative="1" as="geometry">
            <mxPoint x="410" y="320" as="sourcePoint" />
            <mxPoint x="140" y="500" as="targetPoint" />
          </mxGeometry>
        </mxCell>
        <mxCell id="K3Fq1qGG9vaQc0jTNdZ0-45" value="Restaurant Items" style="swimlane;fontStyle=3;childLayout=stackLayout;horizontal=1;startSize=26;horizontalStack=0;resizeParent=1;resizeParentMax=0;resizeLast=0;collapsible=1;marginBottom=0;align=center;fontSize=18;fontFamily=Times New Roman;fillColor=#f8cecc;strokeColor=#b85450;" parent="1" vertex="1">
          <mxGeometry x="1180" y="150" width="160" height="214" as="geometry" />
        </mxCell>
        <mxCell id="xaXNP4Upr7w5U2Vh18G4-34" value="ItemId" style="text;strokeColor=#b85450;fillColor=#f8cecc;spacingLeft=4;spacingRight=4;overflow=hidden;rotatable=0;points=[[0,0.5],[1,0.5]];portConstraint=eastwest;fontSize=18;fontFamily=Times New Roman;fontStyle=3" parent="K3Fq1qGG9vaQc0jTNdZ0-45" vertex="1">
          <mxGeometry y="26" width="160" height="34" as="geometry" />
        </mxCell>
        <mxCell id="K3Fq1qGG9vaQc0jTNdZ0-46" value="ItemId" style="text;strokeColor=#b85450;fillColor=#f8cecc;spacingLeft=4;spacingRight=4;overflow=hidden;rotatable=0;points=[[0,0.5],[1,0.5]];portConstraint=eastwest;fontSize=18;fontFamily=Times New Roman;fontStyle=3" parent="K3Fq1qGG9vaQc0jTNdZ0-45" vertex="1">
          <mxGeometry y="60" width="160" height="34" as="geometry" />
        </mxCell>
        <mxCell id="K3Fq1qGG9vaQc0jTNdZ0-47" value="itemName" style="text;strokeColor=#b85450;fillColor=#f8cecc;spacingLeft=4;spacingRight=4;overflow=hidden;rotatable=0;points=[[0,0.5],[1,0.5]];portConstraint=eastwest;fontSize=18;fontFamily=Times New Roman;fontStyle=3" parent="K3Fq1qGG9vaQc0jTNdZ0-45" vertex="1">
          <mxGeometry y="94" width="160" height="30" as="geometry" />
        </mxCell>
        <mxCell id="K3Fq1qGG9vaQc0jTNdZ0-48" value="commentsItems" style="text;strokeColor=#b85450;fillColor=#f8cecc;spacingLeft=4;spacingRight=4;overflow=hidden;rotatable=0;points=[[0,0.5],[1,0.5]];portConstraint=eastwest;fontSize=18;fontFamily=Times New Roman;fontStyle=3" parent="K3Fq1qGG9vaQc0jTNdZ0-45" vertex="1">
          <mxGeometry y="124" width="160" height="30" as="geometry" />
        </mxCell>
        <mxCell id="K3Fq1qGG9vaQc0jTNdZ0-49" value="ratingStarItem" style="text;strokeColor=#b85450;fillColor=#f8cecc;spacingLeft=4;spacingRight=4;overflow=hidden;rotatable=0;points=[[0,0.5],[1,0.5]];portConstraint=eastwest;fontSize=18;fontFamily=Times New Roman;fontStyle=3" parent="K3Fq1qGG9vaQc0jTNdZ0-45" vertex="1">
          <mxGeometry y="154" width="160" height="30" as="geometry" />
        </mxCell>
        <mxCell id="K3Fq1qGG9vaQc0jTNdZ0-50" value="image" style="text;strokeColor=#b85450;fillColor=#f8cecc;spacingLeft=4;spacingRight=4;overflow=hidden;rotatable=0;points=[[0,0.5],[1,0.5]];portConstraint=eastwest;fontSize=18;fontFamily=Times New Roman;fontStyle=3" parent="K3Fq1qGG9vaQc0jTNdZ0-45" vertex="1">
          <mxGeometry y="184" width="160" height="30" as="geometry" />
        </mxCell>
        <mxCell id="K3Fq1qGG9vaQc0jTNdZ0-51" value="Reservation History" style="swimlane;fontStyle=3;childLayout=stackLayout;horizontal=1;startSize=26;horizontalStack=0;resizeParent=1;resizeParentMax=0;resizeLast=0;collapsible=1;marginBottom=0;align=center;fontSize=18;fontFamily=Times New Roman;" parent="1" vertex="1">
          <mxGeometry x="-270" y="530" width="160" height="116" as="geometry" />
        </mxCell>
        <mxCell id="K3Fq1qGG9vaQc0jTNdZ0-52" value="historyID" style="text;strokeColor=none;fillColor=none;spacingLeft=4;spacingRight=4;overflow=hidden;rotatable=0;points=[[0,0.5],[1,0.5]];portConstraint=eastwest;fontSize=18;fontFamily=Times New Roman;fontStyle=3" parent="K3Fq1qGG9vaQc0jTNdZ0-51" vertex="1">
          <mxGeometry y="26" width="160" height="30" as="geometry" />
        </mxCell>
        <mxCell id="K3Fq1qGG9vaQc0jTNdZ0-53" value="Item 2" style="text;strokeColor=none;fillColor=none;spacingLeft=4;spacingRight=4;overflow=hidden;rotatable=0;points=[[0,0.5],[1,0.5]];portConstraint=eastwest;fontSize=18;fontFamily=Times New Roman;fontStyle=3" parent="K3Fq1qGG9vaQc0jTNdZ0-51" vertex="1">
          <mxGeometry y="56" width="160" height="30" as="geometry" />
        </mxCell>
        <mxCell id="K3Fq1qGG9vaQc0jTNdZ0-54" value="Item 3" style="text;strokeColor=none;fillColor=none;spacingLeft=4;spacingRight=4;overflow=hidden;rotatable=0;points=[[0,0.5],[1,0.5]];portConstraint=eastwest;fontSize=18;fontFamily=Times New Roman;fontStyle=3" parent="K3Fq1qGG9vaQc0jTNdZ0-51" vertex="1">
          <mxGeometry y="86" width="160" height="30" as="geometry" />
        </mxCell>
        <mxCell id="K3Fq1qGG9vaQc0jTNdZ0-55" value="Reservation Details" style="swimlane;fontStyle=3;childLayout=stackLayout;horizontal=1;startSize=26;horizontalStack=0;resizeParent=1;resizeParentMax=0;resizeLast=0;collapsible=1;marginBottom=0;align=center;fontSize=18;fontFamily=Times New Roman;" parent="1" vertex="1">
          <mxGeometry x="470" y="411" width="160" height="236" as="geometry" />
        </mxCell>
        <mxCell id="K3Fq1qGG9vaQc0jTNdZ0-56" value="reserveDetailID" style="text;strokeColor=none;fillColor=none;spacingLeft=4;spacingRight=4;overflow=hidden;rotatable=0;points=[[0,0.5],[1,0.5]];portConstraint=eastwest;fontSize=18;fontFamily=Times New Roman;fontStyle=3" parent="K3Fq1qGG9vaQc0jTNdZ0-55" vertex="1">
          <mxGeometry y="26" width="160" height="30" as="geometry" />
        </mxCell>
        <mxCell id="K3Fq1qGG9vaQc0jTNdZ0-59" value="userID" style="text;strokeColor=none;fillColor=none;spacingLeft=4;spacingRight=4;overflow=hidden;rotatable=0;points=[[0,0.5],[1,0.5]];portConstraint=eastwest;fontSize=18;fontFamily=Times New Roman;fontStyle=3" parent="K3Fq1qGG9vaQc0jTNdZ0-55" vertex="1">
          <mxGeometry y="56" width="160" height="30" as="geometry" />
        </mxCell>
        <mxCell id="K3Fq1qGG9vaQc0jTNdZ0-58" value="resturantID" style="text;strokeColor=none;fillColor=none;spacingLeft=4;spacingRight=4;overflow=hidden;rotatable=0;points=[[0,0.5],[1,0.5]];portConstraint=eastwest;fontSize=18;fontFamily=Times New Roman;fontStyle=3" parent="K3Fq1qGG9vaQc0jTNdZ0-55" vertex="1">
          <mxGeometry y="86" width="160" height="30" as="geometry" />
        </mxCell>
        <mxCell id="xaXNP4Upr7w5U2Vh18G4-33" value="seatDetailsID" style="text;strokeColor=none;fillColor=none;spacingLeft=4;spacingRight=4;overflow=hidden;rotatable=0;points=[[0,0.5],[1,0.5]];portConstraint=eastwest;fontSize=18;fontFamily=Times New Roman;fontStyle=3" parent="K3Fq1qGG9vaQc0jTNdZ0-55" vertex="1">
          <mxGeometry y="116" width="160" height="30" as="geometry" />
        </mxCell>
        <mxCell id="K3Fq1qGG9vaQc0jTNdZ0-57" value="reservationTime" style="text;strokeColor=none;fillColor=none;spacingLeft=4;spacingRight=4;overflow=hidden;rotatable=0;points=[[0,0.5],[1,0.5]];portConstraint=eastwest;fontSize=18;fontFamily=Times New Roman;fontStyle=3" parent="K3Fq1qGG9vaQc0jTNdZ0-55" vertex="1">
          <mxGeometry y="146" width="160" height="30" as="geometry" />
        </mxCell>
        <mxCell id="K3Fq1qGG9vaQc0jTNdZ0-60" value="noOfPeople" style="text;strokeColor=none;fillColor=none;spacingLeft=4;spacingRight=4;overflow=hidden;rotatable=0;points=[[0,0.5],[1,0.5]];portConstraint=eastwest;fontSize=18;fontFamily=Times New Roman;fontStyle=3" parent="K3Fq1qGG9vaQc0jTNdZ0-55" vertex="1">
          <mxGeometry y="176" width="160" height="30" as="geometry" />
        </mxCell>
        <mxCell id="K3Fq1qGG9vaQc0jTNdZ0-61" value="status" style="text;strokeColor=none;fillColor=none;spacingLeft=4;spacingRight=4;overflow=hidden;rotatable=0;points=[[0,0.5],[1,0.5]];portConstraint=eastwest;fontSize=18;fontFamily=Times New Roman;fontStyle=3" parent="K3Fq1qGG9vaQc0jTNdZ0-55" vertex="1">
          <mxGeometry y="206" width="160" height="30" as="geometry" />
        </mxCell>
        <mxCell id="xaXNP4Upr7w5U2Vh18G4-1" value="" style="edgeStyle=entityRelationEdgeStyle;fontSize=12;html=1;endArrow=ERoneToMany;exitX=1;exitY=0.5;exitDx=0;exitDy=0;" parent="1" source="K3Fq1qGG9vaQc0jTNdZ0-3" edge="1">
          <mxGeometry width="100" height="100" relative="1" as="geometry">
            <mxPoint x="410" y="321" as="sourcePoint" />
            <mxPoint x="470" y="490" as="targetPoint" />
          </mxGeometry>
        </mxCell>
        <mxCell id="xaXNP4Upr7w5U2Vh18G4-6" value="" style="edgeStyle=entityRelationEdgeStyle;fontSize=12;html=1;endArrow=ERmany;entryX=1;entryY=0.5;entryDx=0;entryDy=0;exitX=0;exitY=0.5;exitDx=0;exitDy=0;" parent="1" source="K3Fq1qGG9vaQc0jTNdZ0-8" target="K3Fq1qGG9vaQc0jTNdZ0-58" edge="1">
          <mxGeometry width="100" height="100" relative="1" as="geometry">
            <mxPoint x="810" y="600" as="sourcePoint" />
            <mxPoint x="910" y="500" as="targetPoint" />
          </mxGeometry>
        </mxCell>
        <mxCell id="xaXNP4Upr7w5U2Vh18G4-21" value="Seat Details" style="swimlane;fontStyle=3;childLayout=stackLayout;horizontal=1;startSize=26;horizontalStack=0;resizeParent=1;resizeParentMax=0;resizeLast=0;collapsible=1;marginBottom=0;align=center;fontSize=18;fontFamily=Times New Roman;" parent="1" vertex="1">
          <mxGeometry x="930" y="490" width="160" height="146" as="geometry" />
        </mxCell>
        <mxCell id="xaXNP4Upr7w5U2Vh18G4-22" value="seatDetailsID" style="text;strokeColor=none;fillColor=none;spacingLeft=4;spacingRight=4;overflow=hidden;rotatable=0;points=[[0,0.5],[1,0.5]];portConstraint=eastwest;fontSize=18;fontFamily=Times New Roman;fontStyle=3" parent="xaXNP4Upr7w5U2Vh18G4-21" vertex="1">
          <mxGeometry y="26" width="160" height="30" as="geometry" />
        </mxCell>
        <mxCell id="xaXNP4Upr7w5U2Vh18G4-29" value="restaurantID" style="text;strokeColor=none;fillColor=none;spacingLeft=4;spacingRight=4;overflow=hidden;rotatable=0;points=[[0,0.5],[1,0.5]];portConstraint=eastwest;fontSize=18;fontFamily=Times New Roman;fontStyle=3" parent="xaXNP4Upr7w5U2Vh18G4-21" vertex="1">
          <mxGeometry y="56" width="160" height="30" as="geometry" />
        </mxCell>
        <mxCell id="xaXNP4Upr7w5U2Vh18G4-14" value="status" style="text;strokeColor=none;fillColor=none;spacingLeft=4;spacingRight=4;overflow=hidden;rotatable=0;points=[[0,0.5],[1,0.5]];portConstraint=eastwest;fontSize=18;fontFamily=Times New Roman;fontStyle=3" parent="xaXNP4Upr7w5U2Vh18G4-21" vertex="1">
          <mxGeometry y="86" width="160" height="30" as="geometry" />
        </mxCell>
        <mxCell id="xaXNP4Upr7w5U2Vh18G4-30" value="seatCapacity" style="text;strokeColor=none;fillColor=none;spacingLeft=4;spacingRight=4;overflow=hidden;rotatable=0;points=[[0,0.5],[1,0.5]];portConstraint=eastwest;fontSize=18;fontFamily=Times New Roman;fontStyle=3" parent="xaXNP4Upr7w5U2Vh18G4-21" vertex="1">
          <mxGeometry y="116" width="160" height="30" as="geometry" />
        </mxCell>
        <mxCell id="xaXNP4Upr7w5U2Vh18G4-32" value="" style="edgeStyle=entityRelationEdgeStyle;fontSize=12;html=1;endArrow=ERoneToMany;entryX=0;entryY=0.25;entryDx=0;entryDy=0;exitX=1;exitY=0.5;exitDx=0;exitDy=0;" parent="1" source="K3Fq1qGG9vaQc0jTNdZ0-8" target="xaXNP4Upr7w5U2Vh18G4-21" edge="1">
          <mxGeometry width="100" height="100" relative="1" as="geometry">
            <mxPoint x="990" y="380" as="sourcePoint" />
            <mxPoint x="1090" y="280" as="targetPoint" />
          </mxGeometry>
        </mxCell>
        <mxCell id="xaXNP4Upr7w5U2Vh18G4-35" value="List" style="swimlane;fontStyle=0;childLayout=stackLayout;horizontal=1;startSize=26;horizontalStack=0;resizeParent=1;resizeParentMax=0;resizeLast=0;collapsible=1;marginBottom=0;align=center;fontSize=14;" parent="1" vertex="1">
          <mxGeometry x="-1090" y="400" width="160" height="116" as="geometry" />
        </mxCell>
        <mxCell id="xaXNP4Upr7w5U2Vh18G4-36" value="Item 1" style="text;strokeColor=none;fillColor=none;spacingLeft=4;spacingRight=4;overflow=hidden;rotatable=0;points=[[0,0.5],[1,0.5]];portConstraint=eastwest;fontSize=12;" parent="xaXNP4Upr7w5U2Vh18G4-35" vertex="1">
          <mxGeometry y="26" width="160" height="30" as="geometry" />
        </mxCell>
        <mxCell id="xaXNP4Upr7w5U2Vh18G4-37" value="Item 2" style="text;strokeColor=none;fillColor=none;spacingLeft=4;spacingRight=4;overflow=hidden;rotatable=0;points=[[0,0.5],[1,0.5]];portConstraint=eastwest;fontSize=12;" parent="xaXNP4Upr7w5U2Vh18G4-35" vertex="1">
          <mxGeometry y="56" width="160" height="30" as="geometry" />
        </mxCell>
        <mxCell id="xaXNP4Upr7w5U2Vh18G4-38" value="Item 3" style="text;strokeColor=none;fillColor=none;spacingLeft=4;spacingRight=4;overflow=hidden;rotatable=0;points=[[0,0.5],[1,0.5]];portConstraint=eastwest;fontSize=12;" parent="xaXNP4Upr7w5U2Vh18G4-35" vertex="1">
          <mxGeometry y="86" width="160" height="30" as="geometry" />
        </mxCell>
      </root>
    </mxGraphModel>
  </diagram>
</mxfile>
